<svg width="48" height="48" viewBox="0 0 48 48" fill="none" xmlns="http://www.w3.org/2000/svg">
  <defs>
    <linearGradient id="bg" x1="6" y1="4" x2="42" y2="46" gradientUnits="userSpaceOnUse">
      <stop stop-color="#D9C9FF"/>
      <stop offset="1" stop-color="#8468EB"/>
    </linearGradient>
  </defs>
  <circle cx="24" cy="24" r="23" fill="url(#bg)"/>
  <path d="M13 20.5C13 12.5 17.9 8 24.3 8 31.7 8 36 13.5 35.2 22.4l-2.8 8.7H15.5L13 20.5Z" fill="#382A55"/>
  <ellipse cx="24" cy="21.5" rx="8.2" ry="9.2" fill="#FFD8C5"/>
  <path d="M16.3 18.3c1.2-6 4.5-8.4 8.5-8.4 4.5 0 7.7 2.8 8.4 7.7-4.2-.4-7.5-2.1-9.6-4.5-1.4 2.5-3.8 4.3-7.3 5.2Z" fill="#4B376C"/>
  <ellipse cx="20.8" cy="21.8" rx="1" ry="1.25" fill="#392B3D"/>
  <ellipse cx="27.5" cy="21.8" rx="1" ry="1.25" fill="#392B3D"/>
  <path d="M21.2 26.2c1.8 1.5 3.8 1.5 5.7 0" stroke="#D67E78" stroke-width="1.2" stroke-linecap="round"/>
  <path d="M9.5 43c1-8.1 5.8-12.1 14.5-12.1S37.6 34.9 38.5 43h-29Z" fill="#F5F1FF"/>
  <path d="M19.8 31.4 24 36l4.2-4.6" stroke="#8A6BE9" stroke-width="1.4" stroke-linejoin="round"/>
  <circle cx="24" cy="24" r="22.2" stroke="#FFFFFF" stroke-opacity=".75" stroke-width="1.6"/>
</svg>
